<svg xmlns="http://www.w3.org/2000/svg" width="1024" height="1024" viewBox="0 0 1024 1024" version="1.1"><path d="M 481 30.690 C 398.397 35.498, 319.859 60.781, 254.073 103.744 C 190.528 145.242, 135.645 205.255, 99.172 273.124 C 95.450 280.050, 94.006 283.834, 94.022 286.624 C 94.067 294.420, 93.476 294.170, 138.589 305.495 C 175.307 314.714, 204.429 322.611, 221.500 327.980 C 267.687 342.506, 287.649 349.438, 318 361.494 C 380.411 386.285, 435.187 415.894, 478.921 448.480 C 490.298 456.958, 493.195 458.466, 500.071 459.492 C 506.413 460.438, 510.988 459.006, 529.500 450.283 C 705.830 367.198, 797.107 330.553, 897.500 302.540 C 926.692 294.394, 926.497 294.490, 928.435 287.468 C 929.136 284.931, 924.536 275.210, 914.354 257.712 C 868.281 178.527, 800.735 115.532, 720.500 76.917 C 655.225 45.502, 582.491 29.531, 507.670 30.185 C 496.027 30.287, 484.025 30.514, 481 30.690" stroke="none" fill="#ffcf17" fill-rule="evenodd"/><path d="M 948 402.062 C 873.082 424.935, 776.907 461.820, 681.500 504.267 C 586.268 546.637, 479.426 601.840, 399.500 649.971 C 353.299 677.792, 284.919 722.551, 244.500 751.427 C 212.303 774.429, 172.473 804.743, 171.285 807.150 C 167.346 815.133, 169.365 819.283, 184.108 833.500 C 212.973 861.335, 257.441 891.821, 296.548 910.583 C 313.681 918.803, 320.406 921, 328.431 921 C 339.543 921, 343.340 918.891, 372.236 896.666 C 457.318 831.225, 514.942 792.426, 594.500 747.012 C 640.774 720.597, 669.262 705.360, 716.939 681.523 C 799.678 640.157, 867.674 610.953, 944.500 583.787 C 964.794 576.610, 967.885 575.115, 973 570 C 979.333 563.667, 980.888 559.494, 982.987 543.198 C 987.020 511.900, 988.098 479.968, 985.983 454.500 C 984.560 437.379, 980.044 406.088, 978.436 402.214 C 977.142 399.098, 972.150 395.912, 968.782 396.054 C 968.077 396.084, 958.725 398.787, 948 402.062 M 44.111 412.750 C 41.702 415.172, 41.176 416.932, 39.702 427.500 C 36.518 450.321, 35.728 463.975, 36.348 485.500 C 37.011 508.569, 37.692 512.976, 41.166 516.684 C 44.094 519.809, 43.871 519.718, 78.617 531.981 C 116.159 545.230, 154.095 560.362, 181.529 573.029 C 193.613 578.608, 208.900 585.492, 215.500 588.326 C 227.272 593.380, 227.690 593.478, 237.500 593.489 C 249.535 593.502, 248.163 594.122, 275.738 576.223 C 297.182 562.305, 331.677 541.211, 348.778 531.558 C 359.457 525.531, 362 523.159, 362 519.228 C 362 512.629, 356.174 508.571, 326 494.152 C 256.119 460.760, 168.050 433.189, 68.529 413.547 C 58.644 411.596, 49.722 410, 48.702 410 C 47.681 410, 45.615 411.238, 44.111 412.750 M 58.655 645.829 C 56.387 648.335, 56.553 650.305, 59.857 660.062 C 63.452 670.684, 69.037 681.792, 72.320 684.850 C 77.168 689.368, 86.473 686.833, 99.707 677.389 C 113.697 667.406, 113.524 659.020, 99.217 653.718 C 92.044 651.059, 65.049 644, 62.054 644 C 61.095 644, 59.565 644.823, 58.655 645.829 M 868 733.810 C 767.904 778.058, 674.308 828.019, 586 884.339 C 539.907 913.735, 498.905 942.024, 497.710 945.254 C 497.151 946.767, 497.482 948.165, 498.826 949.954 L 500.738 952.500 521.119 952.371 C 601.990 951.860, 687.478 924.256, 761.248 874.834 C 814.576 839.106, 863.967 791.182, 892.648 747.334 C 896.666 741.193, 900.723 734.551, 901.665 732.576 C 903.317 729.113, 903.305 728.885, 901.340 726.242 C 897.654 721.285, 894.940 721.901, 868 733.810" stroke="none" fill="#048d3f" fill-rule="evenodd"/></svg>